<svg width="564" height="105" viewBox="0 0 564 105" fill="none" xmlns="http://www.w3.org/2000/svg">
<path d="M1.93182 3.18182V2.09091H25.5227V3.18182H14.2727V37H13.1818V3.18182H1.93182ZM34.1648 19.4091V37H33.0739V2.09091H34.1648V14.9773H34.3011C34.9148 13.6136 35.9205 12.5227 37.3182 11.7045C38.7273 10.8864 40.3352 10.4773 42.142 10.4773C43.892 10.4773 45.4375 10.858 46.7784 11.6193C48.1193 12.3807 49.1705 13.4318 49.9318 14.7727C50.6932 16.1136 51.0739 17.6591 51.0739 19.4091V37H49.983V19.4091C49.983 17.0909 49.2557 15.2045 47.8011 13.75C46.3466 12.2955 44.4602 11.5682 42.142 11.5682C40.5966 11.5682 39.2216 11.9034 38.017 12.5739C36.8239 13.2443 35.8807 14.1705 35.1875 15.3523C34.5057 16.5341 34.1648 17.8864 34.1648 19.4091ZM70.1733 37.5455C67.8892 37.5455 65.8892 36.9489 64.1733 35.7557C62.4688 34.5625 61.1449 32.9432 60.2017 30.8977C59.2585 28.8523 58.7869 26.5455 58.7869 23.9773C58.7869 21.4091 59.2585 19.1023 60.2017 17.0568C61.1563 15.0114 62.4517 13.392 64.0881 12.1989C65.7244 11.0057 67.571 10.4091 69.6278 10.4091C71.1506 10.4091 72.5597 10.733 73.8551 11.3807C75.1619 12.0284 76.2983 12.9261 77.2642 14.0739C78.2301 15.2216 78.9801 16.5455 79.5142 18.0455C80.0597 19.5341 80.3324 21.125 80.3324 22.8182V23.9091H59.3324V22.8182H79.2415C79.2415 20.7159 78.8097 18.8125 77.946 17.108C77.0824 15.392 75.9233 14.0284 74.4688 13.017C73.0142 12.0057 71.4006 11.5 69.6278 11.5C67.8324 11.5 66.2074 12.0341 64.7528 13.1023C63.2983 14.1705 62.1335 15.625 61.2585 17.4659C60.3835 19.3068 59.9233 21.3864 59.8778 23.7045V23.8409C59.8778 26.125 60.2756 28.2273 61.071 30.1477C61.8778 32.0568 63.0483 33.5852 64.5824 34.733C66.1165 35.8807 67.9801 36.4545 70.1733 36.4545C71.7869 36.4545 73.1392 36.1705 74.2301 35.6023C75.3324 35.0341 76.2131 34.3807 76.8722 33.642C77.5426 32.9034 78.0369 32.2727 78.3551 31.75L79.2415 32.3636C78.8551 33.0227 78.2756 33.7557 77.5028 34.5625C76.7301 35.3693 75.7415 36.0682 74.5369 36.6591C73.3324 37.25 71.8778 37.5455 70.1733 37.5455ZM102.376 37V2.09091H121.126V3.18182H103.467V19H119.49V20.0909H103.467V37H102.376ZM144.905 28.4091V10.8182H145.996V37H144.905V32.8409H144.768C144.155 34.2045 143.143 35.2955 141.734 36.1136C140.337 36.9318 138.734 37.3409 136.928 37.3409C135.178 37.3409 133.632 36.9602 132.291 36.1989C130.95 35.4375 129.899 34.3864 129.138 33.0455C128.376 31.7045 127.996 30.1591 127.996 28.4091V10.8182H129.087V28.4091C129.087 30.7273 129.814 32.6136 131.268 34.0682C132.723 35.5227 134.609 36.25 136.928 36.25C138.473 36.25 139.842 35.9148 141.036 35.2443C142.24 34.5739 143.183 33.6477 143.865 32.4659C144.558 31.2841 144.905 29.9318 144.905 28.4091ZM163.459 10.8182V11.9091H153.095V10.8182H163.459ZM156.913 4.54545H158.004V31.4773C158.004 32.5 158.232 33.3807 158.686 34.1193C159.141 34.8466 159.743 35.4091 160.493 35.8068C161.243 36.1932 162.05 36.3864 162.913 36.3864C163.243 36.3864 163.544 36.358 163.817 36.3011C164.101 36.2443 164.391 36.1591 164.686 36.0455L165.027 37.0682C164.686 37.1932 164.351 37.2898 164.021 37.358C163.692 37.4375 163.322 37.4773 162.913 37.4773C161.845 37.4773 160.851 37.233 159.93 36.7443C159.021 36.2557 158.288 35.5625 157.732 34.6648C157.186 33.767 156.913 32.7045 156.913 31.4773V4.54545ZM188.874 28.4091V10.8182H189.964V37H188.874V32.8409H188.737C188.124 34.2045 187.112 35.2955 185.703 36.1136C184.305 36.9318 182.703 37.3409 180.896 37.3409C179.146 37.3409 177.601 36.9602 176.26 36.1989C174.919 35.4375 173.868 34.3864 173.107 33.0455C172.345 31.7045 171.964 30.1591 171.964 28.4091V10.8182H173.055V28.4091C173.055 30.7273 173.783 32.6136 175.237 34.0682C176.692 35.5227 178.578 36.25 180.896 36.25C182.442 36.25 183.811 35.9148 185.004 35.2443C186.209 34.5739 187.152 33.6477 187.834 32.4659C188.527 31.2841 188.874 29.9318 188.874 28.4091ZM199.246 37V10.8182H200.337V14.9773H200.473C201.087 13.6136 202.092 12.5227 203.49 11.7045C204.899 10.8864 206.507 10.4773 208.314 10.4773C208.45 10.4773 208.541 10.4773 208.587 10.4773C208.632 10.4773 208.723 10.4773 208.859 10.4773V11.5682C208.723 11.5682 208.632 11.5682 208.587 11.5682C208.541 11.5682 208.45 11.5682 208.314 11.5682C206.768 11.5682 205.393 11.9034 204.189 12.5739C202.996 13.2443 202.053 14.1705 201.359 15.3523C200.678 16.5341 200.337 17.8864 200.337 19.4091V37H199.246ZM223.876 37.5455C221.592 37.5455 219.592 36.9489 217.876 35.7557C216.172 34.5625 214.848 32.9432 213.905 30.8977C212.962 28.8523 212.49 26.5455 212.49 23.9773C212.49 21.4091 212.962 19.1023 213.905 17.0568C214.859 15.0114 216.155 13.392 217.791 12.1989C219.428 11.0057 221.274 10.4091 223.331 10.4091C224.854 10.4091 226.263 10.733 227.558 11.3807C228.865 12.0284 230.001 12.9261 230.967 14.0739C231.933 15.2216 232.683 16.5455 233.217 18.0455C233.763 19.5341 234.036 21.125 234.036 22.8182V23.9091H213.036V22.8182H232.945C232.945 20.7159 232.513 18.8125 231.649 17.108C230.786 15.392 229.626 14.0284 228.172 13.017C226.717 12.0057 225.104 11.5 223.331 11.5C221.536 11.5 219.911 12.0341 218.456 13.1023C217.001 14.1705 215.837 15.625 214.962 17.4659C214.087 19.3068 213.626 21.3864 213.581 23.7045V23.8409C213.581 26.125 213.979 28.2273 214.774 30.1477C215.581 32.0568 216.751 33.5852 218.286 34.733C219.82 35.8807 221.683 36.4545 223.876 36.4545C225.49 36.4545 226.842 36.1705 227.933 35.6023C229.036 35.0341 229.916 34.3807 230.575 33.642C231.246 32.9034 231.74 32.2727 232.058 31.75L232.945 32.3636C232.558 33.0227 231.979 33.7557 231.206 34.5625C230.433 35.3693 229.445 36.0682 228.24 36.6591C227.036 37.25 225.581 37.5455 223.876 37.5455ZM264.534 37.5455C262.477 37.5455 260.631 36.9545 258.994 35.7727C257.358 34.5795 256.063 32.9602 255.108 30.9148C254.165 28.858 253.693 26.5455 253.693 23.9773C253.693 21.3977 254.165 19.0852 255.108 17.0398C256.063 14.9943 257.358 13.3807 258.994 12.1989C260.631 11.0057 262.477 10.4091 264.534 10.4091C266.591 10.4091 268.432 11.0057 270.057 12.1989C271.693 13.392 272.989 15.0114 273.943 17.0568C274.898 19.1023 275.375 21.4091 275.375 23.9773C275.375 26.5455 274.898 28.858 273.943 30.9148C273 32.9602 271.71 34.5795 270.074 35.7727C268.438 36.9545 266.591 37.5455 264.534 37.5455ZM264.534 36.4545C266.386 36.4545 268.045 35.9091 269.511 34.8182C270.989 33.7273 272.153 32.2386 273.006 30.3523C273.858 28.4659 274.284 26.3409 274.284 23.9773C274.284 21.6136 273.852 19.4943 272.989 17.6193C272.136 15.733 270.977 14.2443 269.511 13.1534C268.045 12.0511 266.386 11.5 264.534 11.5C262.693 11.5 261.034 12.0511 259.557 13.1534C258.091 14.2443 256.926 15.733 256.062 17.6193C255.21 19.4943 254.784 21.6136 254.784 23.9773C254.784 26.3409 255.21 28.4659 256.062 30.3523C256.915 32.2386 258.074 33.7273 259.54 34.8182C261.017 35.9091 262.682 36.4545 264.534 36.4545ZM292.058 10.8182V11.9091H281.695V10.8182H292.058ZM285.308 37V6.52273C285.308 5.29545 285.581 4.23295 286.126 3.33523C286.683 2.4375 287.416 1.74432 288.325 1.25568C289.246 0.767045 290.24 0.522727 291.308 0.522727C291.717 0.522727 292.087 0.556818 292.416 0.625C292.746 0.693182 293.07 0.784091 293.388 0.897727L293.047 1.92045C292.763 1.82954 292.484 1.75568 292.212 1.69886C291.939 1.64204 291.638 1.61364 291.308 1.61364C290.001 1.61364 288.854 2.05114 287.865 2.92614C286.888 3.80114 286.399 5 286.399 6.52273L286.365 37H285.308ZM322.403 37H313.267V2.09091H323.29C326.506 2.09091 329.256 2.78409 331.54 4.17045C333.835 5.54545 335.591 7.52273 336.807 10.1023C338.034 12.6818 338.642 15.7841 338.631 19.4091C338.619 23.125 337.972 26.2955 336.688 28.9205C335.415 31.5341 333.568 33.5341 331.148 34.9205C328.739 36.3068 325.824 37 322.403 37ZM314.358 35.9091H322.403C325.631 35.9091 328.375 35.2557 330.636 33.9489C332.898 32.6307 334.614 30.7386 335.784 28.2727C336.966 25.8068 337.551 22.8523 337.54 19.4091C337.528 16.0114 336.96 13.1023 335.835 10.6818C334.722 8.26136 333.108 6.40909 330.994 5.125C328.881 3.82954 326.313 3.18182 323.29 3.18182H314.358V35.9091ZM353.307 37.5455C351.875 37.5455 350.551 37.25 349.335 36.6591C348.131 36.0682 347.159 35.2045 346.42 34.0682C345.693 32.9318 345.33 31.5455 345.33 29.9091C345.33 29.0227 345.472 28.1932 345.756 27.4205C346.04 26.6364 346.54 25.9261 347.256 25.2898C347.972 24.6534 348.972 24.108 350.256 23.6534C351.551 23.1989 353.205 22.8523 355.216 22.6136C356.42 22.4773 357.557 22.3182 358.625 22.1364C359.693 21.9545 360.563 21.6818 361.233 21.3182C361.903 20.9545 362.239 20.4318 362.239 19.75V18.1818C362.239 16.1705 361.563 14.5568 360.21 13.3409C358.858 12.1136 357.057 11.5 354.807 11.5C352.966 11.5 351.358 11.9091 349.983 12.7273C348.608 13.5341 347.648 14.6705 347.102 16.1364L346.08 15.7273C346.489 14.6364 347.119 13.6932 347.972 12.8977C348.824 12.1023 349.835 11.4886 351.006 11.0568C352.176 10.625 353.443 10.4091 354.807 10.4091C356.136 10.4091 357.324 10.608 358.369 11.0057C359.426 11.392 360.324 11.9375 361.062 12.642C361.801 13.3352 362.364 14.1534 362.75 15.0966C363.136 16.0398 363.33 17.0682 363.33 18.1818V37H362.239V31.6818H362.102C361.557 32.8636 360.847 33.8977 359.972 34.7841C359.108 35.6591 358.108 36.3409 356.972 36.8295C355.847 37.3068 354.625 37.5455 353.307 37.5455ZM353.307 36.4545C354.966 36.4545 356.472 36.0114 357.824 35.125C359.176 34.2273 360.25 32.983 361.045 31.392C361.841 29.7898 362.239 27.9318 362.239 25.8182V21.8636C361.92 22.1023 361.534 22.3125 361.08 22.4943C360.636 22.6761 360.131 22.8409 359.562 22.9886C359.006 23.125 358.398 23.2443 357.739 23.3466C357.08 23.4489 356.375 23.5455 355.625 23.6364C353.284 23.9091 351.443 24.3239 350.102 24.8807C348.761 25.4375 347.813 26.1364 347.256 26.9773C346.699 27.8182 346.42 28.7955 346.42 29.9091C346.42 31.8864 347.08 33.4716 348.398 34.6648C349.727 35.858 351.364 36.4545 353.307 36.4545ZM380.912 10.8182V11.9091H370.548V10.8182H380.912ZM374.366 4.54545H375.457V31.4773C375.457 32.5 375.685 33.3807 376.139 34.1193C376.594 34.8466 377.196 35.4091 377.946 35.8068C378.696 36.1932 379.503 36.3864 380.366 36.3864C380.696 36.3864 380.997 36.358 381.27 36.3011C381.554 36.2443 381.844 36.1591 382.139 36.0455L382.48 37.0682C382.139 37.1932 381.804 37.2898 381.474 37.358C381.145 37.4375 380.776 37.4773 380.366 37.4773C379.298 37.4773 378.304 37.233 377.384 36.7443C376.474 36.2557 375.741 35.5625 375.185 34.6648C374.639 33.767 374.366 32.7045 374.366 31.4773V4.54545ZM395.963 37.5455C394.531 37.5455 393.207 37.25 391.991 36.6591C390.787 36.0682 389.815 35.2045 389.077 34.0682C388.349 32.9318 387.986 31.5455 387.986 29.9091C387.986 29.0227 388.128 28.1932 388.412 27.4205C388.696 26.6364 389.196 25.9261 389.912 25.2898C390.628 24.6534 391.628 24.108 392.912 23.6534C394.207 23.1989 395.861 22.8523 397.872 22.6136C399.077 22.4773 400.213 22.3182 401.281 22.1364C402.349 21.9545 403.219 21.6818 403.889 21.3182C404.56 20.9545 404.895 20.4318 404.895 19.75V18.1818C404.895 16.1705 404.219 14.5568 402.866 13.3409C401.514 12.1136 399.713 11.5 397.463 11.5C395.622 11.5 394.014 11.9091 392.639 12.7273C391.264 13.5341 390.304 14.6705 389.759 16.1364L388.736 15.7273C389.145 14.6364 389.776 13.6932 390.628 12.8977C391.48 12.1023 392.491 11.4886 393.662 11.0568C394.832 10.625 396.099 10.4091 397.463 10.4091C398.793 10.4091 399.98 10.608 401.026 11.0057C402.082 11.392 402.98 11.9375 403.719 12.642C404.457 13.3352 405.02 14.1534 405.406 15.0966C405.793 16.0398 405.986 17.0682 405.986 18.1818V37H404.895V31.6818H404.759C404.213 32.8636 403.503 33.8977 402.628 34.7841C401.764 35.6591 400.764 36.3409 399.628 36.8295C398.503 37.3068 397.281 37.5455 395.963 37.5455ZM395.963 36.4545C397.622 36.4545 399.128 36.0114 400.48 35.125C401.832 34.2273 402.906 32.983 403.702 31.392C404.497 29.7898 404.895 27.9318 404.895 25.8182V21.8636C404.577 22.1023 404.19 22.3125 403.736 22.4943C403.293 22.6761 402.787 22.8409 402.219 22.9886C401.662 23.125 401.054 23.2443 400.395 23.3466C399.736 23.4489 399.031 23.5455 398.281 23.6364C395.94 23.9091 394.099 24.3239 392.759 24.8807C391.418 25.4375 390.469 26.1364 389.912 26.9773C389.355 27.8182 389.077 28.7955 389.077 29.9091C389.077 31.8864 389.736 33.4716 391.054 34.6648C392.384 35.858 394.02 36.4545 395.963 36.4545ZM9.97727 95L0.363636 60.0909H1.52273L10.6591 93.2955H10.7955L19.6591 60.0909H21.1591L30.0227 93.2955H30.1591L39.2955 60.0909H40.4545L30.8409 95H29.3409L20.4773 61.7955H20.3409L11.4773 95H9.97727ZM47.5241 77.4091V95H46.4332V60.0909H47.5241V72.9773H47.6605C48.2741 71.6136 49.2798 70.5227 50.6776 69.7045C52.0866 68.8864 53.6946 68.4773 55.5014 68.4773C57.2514 68.4773 58.7969 68.858 60.1378 69.6193C61.4787 70.3807 62.5298 71.4318 63.2912 72.7727C64.0526 74.1136 64.4332 75.6591 64.4332 77.4091V95H63.3423V77.4091C63.3423 75.0909 62.6151 73.2045 61.1605 71.75C59.706 70.2955 57.8196 69.5682 55.5014 69.5682C53.956 69.5682 52.581 69.9034 51.3764 70.5739C50.1832 71.2443 49.2401 72.1705 48.5469 73.3523C47.8651 74.5341 47.5241 75.8864 47.5241 77.4091ZM83.5327 95.5455C81.2486 95.5455 79.2486 94.9489 77.5327 93.7557C75.8281 92.5625 74.5043 90.9432 73.5611 88.8977C72.6179 86.8523 72.1463 84.5455 72.1463 81.9773C72.1463 79.4091 72.6179 77.1023 73.5611 75.0568C74.5156 73.0114 75.8111 71.392 77.4474 70.1989C79.0838 69.0057 80.9304 68.4091 82.9872 68.4091C84.5099 68.4091 85.919 68.733 87.2145 69.3807C88.5213 70.0284 89.6577 70.9261 90.6236 72.0739C91.5895 73.2216 92.3395 74.5455 92.8736 76.0455C93.419 77.5341 93.6918 79.125 93.6918 80.8182V81.9091H72.6918V80.8182H92.6009C92.6009 78.7159 92.169 76.8125 91.3054 75.108C90.4418 73.392 89.2827 72.0284 87.8281 71.017C86.3736 70.0057 84.7599 69.5 82.9872 69.5C81.1918 69.5 79.5668 70.0341 78.1122 71.1023C76.6577 72.1705 75.4929 73.625 74.6179 75.4659C73.7429 77.3068 73.2827 79.3864 73.2372 81.7045V81.8409C73.2372 84.125 73.6349 86.2273 74.4304 88.1477C75.2372 90.0568 76.4077 91.5852 77.9418 92.733C79.4759 93.8807 81.3395 94.4545 83.5327 94.4545C85.1463 94.4545 86.4986 94.1705 87.5895 93.6023C88.6918 93.0341 89.5724 92.3807 90.2315 91.642C90.902 90.9034 91.3963 90.2727 91.7145 89.75L92.6009 90.3636C92.2145 91.0227 91.6349 91.7557 90.8622 92.5625C90.0895 93.3693 89.1009 94.0682 87.8963 94.6591C86.6918 95.25 85.2372 95.5455 83.5327 95.5455ZM101.418 95V68.8182H102.509V72.9773H102.645C103.259 71.6136 104.264 70.5227 105.662 69.7045C107.071 68.8864 108.679 68.4773 110.486 68.4773C110.622 68.4773 110.713 68.4773 110.759 68.4773C110.804 68.4773 110.895 68.4773 111.031 68.4773V69.5682C110.895 69.5682 110.804 69.5682 110.759 69.5682C110.713 69.5682 110.622 69.5682 110.486 69.5682C108.94 69.5682 107.565 69.9034 106.361 70.5739C105.168 71.2443 104.224 72.1705 103.531 73.3523C102.849 74.5341 102.509 75.8864 102.509 77.4091V95H101.418ZM126.048 95.5455C123.764 95.5455 121.764 94.9489 120.048 93.7557C118.344 92.5625 117.02 90.9432 116.077 88.8977C115.134 86.8523 114.662 84.5455 114.662 81.9773C114.662 79.4091 115.134 77.1023 116.077 75.0568C117.031 73.0114 118.327 71.392 119.963 70.1989C121.599 69.0057 123.446 68.4091 125.503 68.4091C127.026 68.4091 128.435 68.733 129.73 69.3807C131.037 70.0284 132.173 70.9261 133.139 72.0739C134.105 73.2216 134.855 74.5455 135.389 76.0455C135.935 77.5341 136.207 79.125 136.207 80.8182V81.9091H115.207V80.8182H135.116C135.116 78.7159 134.685 76.8125 133.821 75.108C132.957 73.392 131.798 72.0284 130.344 71.017C128.889 70.0057 127.276 69.5 125.503 69.5C123.707 69.5 122.082 70.0341 120.628 71.1023C119.173 72.1705 118.009 73.625 117.134 75.4659C116.259 77.3068 115.798 79.3864 115.753 81.7045V81.8409C115.753 84.125 116.151 86.2273 116.946 88.1477C117.753 90.0568 118.923 91.5852 120.457 92.733C121.991 93.8807 123.855 94.4545 126.048 94.4545C127.662 94.4545 129.014 94.1705 130.105 93.6023C131.207 93.0341 132.088 92.3807 132.747 91.642C133.418 90.9034 133.912 90.2727 134.23 89.75L135.116 90.3636C134.73 91.0227 134.151 91.7557 133.378 92.5625C132.605 93.3693 131.616 94.0682 130.412 94.6591C129.207 95.25 127.753 95.5455 126.048 95.5455ZM155.524 95H154.365L166.842 60.0909H168.342L180.82 95H179.661L167.661 61.4545H167.524L155.524 95ZM159.479 82.1136H175.706V83.2045H159.479V82.1136ZM188.92 60.0909V95H187.83V60.0909H188.92ZM213.33 60.0909H214.284L228.534 93.3636H228.67L242.92 60.0909H243.875V95H242.784V63.5H242.648L229.148 95H228.057L214.557 63.5H214.42V95H213.33V60.0909ZM263.767 95.5455C261.483 95.5455 259.483 94.9489 257.767 93.7557C256.063 92.5625 254.739 90.9432 253.795 88.8977C252.852 86.8523 252.381 84.5455 252.381 81.9773C252.381 79.4091 252.852 77.1023 253.795 75.0568C254.75 73.0114 256.045 71.392 257.682 70.1989C259.318 69.0057 261.165 68.4091 263.222 68.4091C264.744 68.4091 266.153 68.733 267.449 69.3807C268.756 70.0284 269.892 70.9261 270.858 72.0739C271.824 73.2216 272.574 74.5455 273.108 76.0455C273.653 77.5341 273.926 79.125 273.926 80.8182V81.9091H252.926V80.8182H272.835C272.835 78.7159 272.403 76.8125 271.54 75.108C270.676 73.392 269.517 72.0284 268.062 71.017C266.608 70.0057 264.994 69.5 263.222 69.5C261.426 69.5 259.801 70.0341 258.347 71.1023C256.892 72.1705 255.727 73.625 254.852 75.4659C253.977 77.3068 253.517 79.3864 253.472 81.7045V81.8409C253.472 84.125 253.869 86.2273 254.665 88.1477C255.472 90.0568 256.642 91.5852 258.176 92.733C259.71 93.8807 261.574 94.4545 263.767 94.4545C265.381 94.4545 266.733 94.1705 267.824 93.6023C268.926 93.0341 269.807 92.3807 270.466 91.642C271.136 90.9034 271.631 90.2727 271.949 89.75L272.835 90.3636C272.449 91.0227 271.869 91.7557 271.097 92.5625C270.324 93.3693 269.335 94.0682 268.131 94.6591C266.926 95.25 265.472 95.5455 263.767 95.5455ZM291.47 95.5455C289.186 95.5455 287.186 94.9489 285.47 93.7557C283.766 92.5625 282.442 90.9432 281.499 88.8977C280.555 86.8523 280.084 84.5455 280.084 81.9773C280.084 79.4091 280.555 77.1023 281.499 75.0568C282.453 73.0114 283.749 71.392 285.385 70.1989C287.021 69.0057 288.868 68.4091 290.925 68.4091C292.447 68.4091 293.857 68.733 295.152 69.3807C296.459 70.0284 297.595 70.9261 298.561 72.0739C299.527 73.2216 300.277 74.5455 300.811 76.0455C301.357 77.5341 301.629 79.125 301.629 80.8182V81.9091H280.629V80.8182H300.538C300.538 78.7159 300.107 76.8125 299.243 75.108C298.379 73.392 297.22 72.0284 295.766 71.017C294.311 70.0057 292.697 69.5 290.925 69.5C289.129 69.5 287.504 70.0341 286.05 71.1023C284.595 72.1705 283.43 73.625 282.555 75.4659C281.68 77.3068 281.22 79.3864 281.175 81.7045V81.8409C281.175 84.125 281.572 86.2273 282.368 88.1477C283.175 90.0568 284.345 91.5852 285.879 92.733C287.413 93.8807 289.277 94.4545 291.47 94.4545C293.084 94.4545 294.436 94.1705 295.527 93.6023C296.629 93.0341 297.51 92.3807 298.169 91.642C298.839 90.9034 299.334 90.2727 299.652 89.75L300.538 90.3636C300.152 91.0227 299.572 91.7557 298.8 92.5625C298.027 93.3693 297.038 94.0682 295.834 94.6591C294.629 95.25 293.175 95.5455 291.47 95.5455ZM317.537 68.8182V69.9091H307.173V68.8182H317.537ZM310.991 62.5455H312.082V89.4773C312.082 90.5 312.31 91.3807 312.764 92.1193C313.219 92.8466 313.821 93.4091 314.571 93.8068C315.321 94.1932 316.128 94.3864 316.991 94.3864C317.321 94.3864 317.622 94.358 317.895 94.3011C318.179 94.2443 318.469 94.1591 318.764 94.0455L319.105 95.0682C318.764 95.1932 318.429 95.2898 318.099 95.358C317.77 95.4375 317.401 95.4773 316.991 95.4773C315.923 95.4773 314.929 95.233 314.009 94.7443C313.099 94.2557 312.366 93.5625 311.81 92.6648C311.264 91.767 310.991 90.7045 310.991 89.4773V62.5455ZM341.256 74.3409L340.165 74.6136C339.812 73.4773 339.318 72.5341 338.682 71.7841C338.057 71.0227 337.29 70.4545 336.381 70.0795C335.472 69.6932 334.415 69.5 333.21 69.5C331.119 69.5 329.426 70.0341 328.131 71.1023C326.835 72.1591 326.188 73.5568 326.188 75.2955C326.188 76.6705 326.625 77.8239 327.5 78.7557C328.386 79.6875 329.722 80.375 331.506 80.8182L335.597 81.8409C337.517 82.3182 338.972 83.125 339.96 84.2614C340.96 85.3977 341.46 86.7727 341.46 88.3864C341.46 89.8068 341.085 91.0568 340.335 92.1364C339.597 93.2159 338.574 94.0568 337.267 94.6591C335.96 95.25 334.449 95.5455 332.733 95.5455C330.403 95.5455 328.5 94.9773 327.023 93.8409C325.545 92.7045 324.585 91.0909 324.142 89L325.233 88.7273C325.619 90.5795 326.443 92 327.705 92.9886C328.977 93.9659 330.653 94.4545 332.733 94.4545C335.006 94.4545 336.847 93.8977 338.256 92.7841C339.665 91.6705 340.369 90.2045 340.369 88.3864C340.369 87.0341 339.949 85.892 339.108 84.9602C338.267 84.0284 337.006 83.3523 335.324 82.9318L331.233 81.9091C329.222 81.4091 327.693 80.5909 326.648 79.4545C325.614 78.3182 325.097 76.9318 325.097 75.2955C325.097 73.9205 325.438 72.7216 326.119 71.6989C326.813 70.6648 327.767 69.858 328.983 69.2784C330.21 68.6989 331.619 68.4091 333.21 68.4091C335.233 68.4091 336.92 68.9091 338.273 69.9091C339.625 70.8977 340.619 72.375 341.256 74.3409ZM382.246 68.8182C382.075 66.4318 381.161 64.4716 379.501 62.9375C377.854 61.4034 375.678 60.6364 372.973 60.6364C371.2 60.6364 369.615 60.9773 368.217 61.6591C366.82 62.3409 365.717 63.2784 364.911 64.4716C364.104 65.6534 363.7 67.0114 363.7 68.5455C363.7 69.4318 363.848 70.25 364.143 71C364.439 71.75 364.888 72.4375 365.49 73.0625C366.104 73.6761 366.871 74.233 367.791 74.733C368.723 75.2216 369.814 75.6591 371.064 76.0455L375.018 77.2727C376.53 77.7386 377.837 78.2614 378.939 78.8409C380.041 79.4205 380.95 80.0739 381.666 80.8011C382.393 81.517 382.933 82.3182 383.286 83.2045C383.638 84.0795 383.814 85.0568 383.814 86.1364C383.814 87.9545 383.348 89.5739 382.416 90.9943C381.484 92.4148 380.183 93.5284 378.513 94.3352C376.842 95.142 374.905 95.5455 372.7 95.5455C370.575 95.5455 368.717 95.1761 367.126 94.4375C365.536 93.6875 364.274 92.6591 363.342 91.3523C362.422 90.0341 361.905 88.5227 361.791 86.8182H362.882C362.996 88.3182 363.467 89.642 364.297 90.7898C365.126 91.9375 366.251 92.8352 367.672 93.483C369.104 94.1307 370.78 94.4545 372.7 94.4545C374.7 94.4545 376.45 94.108 377.95 93.4148C379.462 92.7102 380.632 91.733 381.462 90.483C382.303 89.233 382.723 87.7841 382.723 86.1364C382.723 84.8864 382.45 83.7898 381.905 82.8466C381.359 81.892 380.501 81.0511 379.331 80.3239C378.161 79.5966 376.632 78.9432 374.746 78.3636L370.791 77.1364C368.053 76.2727 366.001 75.1307 364.638 73.7102C363.286 72.2898 362.609 70.5682 362.609 68.5455C362.609 66.8295 363.058 65.2955 363.956 63.9432C364.854 62.5795 366.081 61.5057 367.638 60.7216C369.206 59.9375 370.984 59.5455 372.973 59.5455C374.973 59.5455 376.729 59.9432 378.24 60.7386C379.751 61.5341 380.95 62.6307 381.837 64.0284C382.723 65.4261 383.223 67.0227 383.337 68.8182H382.246ZM392.273 95V68.8182H393.364V95H392.273ZM392.818 64.0455C392.523 64.0455 392.267 63.9375 392.051 63.7216C391.835 63.5057 391.727 63.25 391.727 62.9545C391.727 62.6591 391.835 62.4034 392.051 62.1875C392.267 61.9716 392.523 61.8636 392.818 61.8636C393.114 61.8636 393.369 61.9716 393.585 62.1875C393.801 62.4034 393.909 62.6591 393.909 62.9545C393.909 63.25 393.801 63.5057 393.585 63.7216C393.369 63.9375 393.114 64.0455 392.818 64.0455ZM402.777 95V68.8182H403.868V72.7045H404.004C404.482 71.4318 405.334 70.4091 406.561 69.6364C407.8 68.8636 409.288 68.4773 411.027 68.4773C413.004 68.4773 414.578 68.9659 415.749 69.9432C416.93 70.9205 417.743 72.2273 418.186 73.8636H418.322C418.754 72.2273 419.629 70.9205 420.947 69.9432C422.266 68.9659 423.913 68.4773 425.891 68.4773C428.516 68.4773 430.453 69.3125 431.703 70.983C432.964 72.642 433.595 74.7841 433.595 77.4091V95H432.504V77.4091C432.504 75.0909 431.982 73.2045 430.936 71.75C429.891 70.2955 428.209 69.5682 425.891 69.5682C423.572 69.5682 421.8 70.3068 420.572 71.7841C419.345 73.25 418.732 75.125 418.732 77.4091V95H417.641V77.4091C417.641 75.0909 417.118 73.2045 416.072 71.75C415.027 70.2955 413.345 69.5682 411.027 69.5682C409.482 69.5682 408.175 69.9034 407.107 70.5739C406.05 71.2443 405.243 72.1705 404.686 73.3523C404.141 74.5341 403.868 75.8864 403.868 77.4091V95H402.777ZM442.855 104.818V68.8182H443.946V75.5H444.082C444.56 74.0455 445.224 72.7898 446.077 71.733C446.929 70.6761 447.935 69.858 449.094 69.2784C450.264 68.6989 451.548 68.4091 452.946 68.4091C455.014 68.4091 456.798 69.0057 458.298 70.1989C459.81 71.3807 460.974 72.9943 461.793 75.0398C462.622 77.0852 463.037 79.3977 463.037 81.9773C463.037 84.5455 462.622 86.8523 461.793 88.8977C460.963 90.9432 459.793 92.5625 458.281 93.7557C456.77 94.9489 454.991 95.5455 452.946 95.5455C451.56 95.5455 450.281 95.2614 449.111 94.6932C447.94 94.1136 446.923 93.2955 446.06 92.2386C445.196 91.1705 444.537 89.9091 444.082 88.4545H443.946V104.818H442.855ZM443.946 81.9773C443.946 84.3409 444.31 86.4659 445.037 88.3523C445.776 90.2273 446.815 91.7159 448.156 92.8182C449.509 93.9091 451.105 94.4545 452.946 94.4545C454.787 94.4545 456.378 93.9091 457.719 92.8182C459.071 91.7159 460.111 90.2273 460.838 88.3523C461.577 86.4659 461.946 84.3409 461.946 81.9773C461.946 79.6136 461.582 77.4943 460.855 75.6193C460.128 73.733 459.088 72.2443 457.736 71.1534C456.395 70.0511 454.798 69.5 452.946 69.5C451.094 69.5 449.491 70.0511 448.139 71.1534C446.798 72.2443 445.764 73.733 445.037 75.6193C444.31 77.4943 443.946 79.6136 443.946 81.9773ZM471.837 60.0909V95H470.746V60.0909H471.837ZM481.241 95V68.8182H482.332V95H481.241ZM481.787 64.0455C481.491 64.0455 481.236 63.9375 481.02 63.7216C480.804 63.5057 480.696 63.25 480.696 62.9545C480.696 62.6591 480.804 62.4034 481.02 62.1875C481.236 61.9716 481.491 61.8636 481.787 61.8636C482.082 61.8636 482.338 61.9716 482.554 62.1875C482.77 62.4034 482.878 62.6591 482.878 62.9545C482.878 63.25 482.77 63.5057 482.554 63.7216C482.338 63.9375 482.082 64.0455 481.787 64.0455ZM501.155 95.5455C499.041 95.5455 497.155 94.9545 495.496 93.7727C493.848 92.5795 492.547 90.9602 491.592 88.9148C490.649 86.8693 490.178 84.5568 490.178 81.9773C490.178 79.4205 490.649 77.1193 491.592 75.0739C492.536 73.017 493.831 71.392 495.479 70.1989C497.138 69.0057 499.03 68.4091 501.155 68.4091C502.723 68.4091 504.161 68.75 505.467 69.4318C506.786 70.1023 507.888 71.0455 508.774 72.2614C509.661 73.4659 510.234 74.8636 510.496 76.4545H509.337C508.984 74.3977 508.047 72.7273 506.524 71.4432C505.013 70.1477 503.223 69.5 501.155 69.5C499.28 69.5 497.592 70.0455 496.092 71.1364C494.604 72.2159 493.428 73.6989 492.564 75.5852C491.7 77.4602 491.268 79.5909 491.268 81.9773C491.268 84.2955 491.683 86.3977 492.513 88.2841C493.354 90.1705 494.518 91.6705 496.007 92.7841C497.496 93.8977 499.212 94.4545 501.155 94.4545C502.553 94.4545 503.837 94.1648 505.007 93.5852C506.178 92.9943 507.149 92.1648 507.922 91.0966C508.706 90.0284 509.2 88.7841 509.405 87.3636H510.564C510.314 89.0114 509.746 90.4489 508.859 91.6761C507.973 92.9034 506.865 93.858 505.536 94.5398C504.206 95.2102 502.746 95.5455 501.155 95.5455ZM518.413 95V68.8182H519.504V95H518.413ZM518.959 64.0455C518.663 64.0455 518.408 63.9375 518.192 63.7216C517.976 63.5057 517.868 63.25 517.868 62.9545C517.868 62.6591 517.976 62.4034 518.192 62.1875C518.408 61.9716 518.663 61.8636 518.959 61.8636C519.254 61.8636 519.51 61.9716 519.726 62.1875C519.942 62.4034 520.05 62.6591 520.05 62.9545C520.05 63.25 519.942 63.5057 519.726 63.7216C519.51 63.9375 519.254 64.0455 518.959 64.0455ZM537.099 68.8182V69.9091H526.736V68.8182H537.099ZM530.554 62.5455H531.645V89.4773C531.645 90.5 531.872 91.3807 532.327 92.1193C532.781 92.8466 533.384 93.4091 534.134 93.8068C534.884 94.1932 535.69 94.3864 536.554 94.3864C536.884 94.3864 537.185 94.358 537.457 94.3011C537.741 94.2443 538.031 94.1591 538.327 94.0455L538.668 95.0682C538.327 95.1932 537.991 95.2898 537.662 95.358C537.332 95.4375 536.963 95.4773 536.554 95.4773C535.486 95.4773 534.491 95.233 533.571 94.7443C532.662 94.2557 531.929 93.5625 531.372 92.6648C530.827 91.767 530.554 90.7045 530.554 89.4773V62.5455ZM546.798 104.818C546.355 104.818 545.884 104.756 545.384 104.631C544.884 104.517 544.378 104.352 543.866 104.136L544.276 103.182C545.401 103.659 546.423 103.83 547.344 103.693C548.276 103.568 549.094 103.142 549.798 102.415C550.514 101.688 551.105 100.67 551.571 99.3636L552.969 95.4773L543.423 68.8182H544.582L553.446 93.6364H553.582L562.446 68.8182H563.605L552.594 99.7727C552.207 100.864 551.724 101.784 551.145 102.534C550.565 103.284 549.906 103.852 549.168 104.239C548.44 104.625 547.651 104.818 546.798 104.818Z" fill="#EEEEEE"/>
</svg>
