<svg width="7463" height="1305" viewBox="0 0 7463 1305" fill="none" xmlns="http://www.w3.org/2000/svg">
<path d="M19.6477 33.2727V19.6364H314.534V33.2727H173.909V456H160.273V33.2727H19.6477ZM422.56 236.114V456H408.923V19.6364H422.56V180.716H424.264C431.935 163.67 444.506 150.034 461.977 139.807C479.591 129.58 499.69 124.466 522.276 124.466C544.151 124.466 563.469 129.224 580.23 138.741C596.991 148.259 610.131 161.398 619.648 178.159C629.165 194.92 633.923 214.239 633.923 236.114V456H620.287V236.114C620.287 207.136 611.196 183.557 593.014 165.375C574.832 147.193 551.253 138.102 522.276 138.102C502.957 138.102 485.77 142.293 470.713 150.673C455.798 159.054 444.009 170.631 435.344 185.403C426.821 200.176 422.56 217.08 422.56 236.114ZM872.666 462.818C844.115 462.818 819.115 455.361 797.666 440.446C776.359 425.531 759.811 405.29 748.021 379.722C736.232 354.153 730.337 325.318 730.337 293.216C730.337 261.114 736.232 232.278 748.021 206.71C759.953 181.142 776.146 160.901 796.601 145.986C817.055 131.071 840.138 123.614 865.848 123.614C884.882 123.614 902.496 127.662 918.689 135.759C935.024 143.855 949.229 155.077 961.303 169.423C973.376 183.77 982.751 200.318 989.428 219.068C996.246 237.676 999.655 257.562 999.655 278.727V292.364H737.155V278.727H986.018C986.018 252.449 980.621 228.656 969.825 207.349C959.03 185.901 944.541 168.855 926.359 156.213C908.178 143.571 888.007 137.25 865.848 137.25C843.405 137.25 823.092 143.926 804.911 157.278C786.729 170.631 772.169 188.812 761.232 211.824C750.294 234.835 744.541 260.83 743.973 289.807V291.511C743.973 320.062 748.945 346.341 758.888 370.347C768.973 394.21 783.604 413.315 802.78 427.662C821.956 442.009 845.251 449.182 872.666 449.182C892.837 449.182 909.74 445.631 923.376 438.528C937.155 431.426 948.163 423.259 956.402 414.026C964.783 404.793 970.962 396.909 974.939 390.375L986.018 398.045C981.189 406.284 973.945 415.446 964.286 425.531C954.626 435.616 942.268 444.352 927.212 451.739C912.155 459.125 893.973 462.818 872.666 462.818ZM1275.21 456V19.6364H1509.58V33.2727H1288.84V231H1489.13V244.636H1288.84V456H1275.21ZM1806.81 348.614V128.727H1820.45V456H1806.81V404.011H1805.11C1797.44 421.057 1784.79 434.693 1767.18 444.92C1749.71 455.148 1729.68 460.261 1707.09 460.261C1685.22 460.261 1665.9 455.503 1649.14 445.986C1632.38 436.469 1619.24 423.33 1609.72 406.568C1600.21 389.807 1595.45 370.489 1595.45 348.614V128.727H1609.08V348.614C1609.08 377.591 1618.17 401.17 1636.36 419.352C1654.54 437.534 1678.12 446.625 1707.09 446.625C1726.41 446.625 1743.53 442.435 1758.44 434.054C1773.5 425.673 1785.29 414.097 1793.81 399.324C1802.48 384.551 1806.81 367.648 1806.81 348.614ZM2038.74 128.727V142.364H1909.19V128.727H2038.74ZM1956.92 50.3182H1970.55V386.966C1970.55 399.75 1973.39 410.759 1979.08 419.991C1984.76 429.082 1992.29 436.114 2001.66 441.085C2011.04 445.915 2021.12 448.33 2031.92 448.33C2036.04 448.33 2039.8 447.974 2043.21 447.264C2046.76 446.554 2050.38 445.489 2054.08 444.068L2058.34 456.852C2054.08 458.415 2049.89 459.622 2045.77 460.474C2041.65 461.469 2037.03 461.966 2031.92 461.966C2018.56 461.966 2006.14 458.912 1994.63 452.804C1983.27 446.696 1974.1 438.031 1967.14 426.81C1960.33 415.588 1956.92 402.307 1956.92 386.966V50.3182ZM2356.42 348.614V128.727H2370.06V456H2356.42V404.011H2354.72C2347.04 421.057 2334.4 434.693 2316.79 444.92C2299.32 455.148 2279.29 460.261 2256.7 460.261C2234.83 460.261 2215.51 455.503 2198.75 445.986C2181.99 436.469 2168.85 423.33 2159.33 406.568C2149.81 389.807 2145.06 370.489 2145.06 348.614V128.727H2158.69V348.614C2158.69 377.591 2167.78 401.17 2185.97 419.352C2204.15 437.534 2227.73 446.625 2256.7 446.625C2276.02 446.625 2293.14 442.435 2308.05 434.054C2323.11 425.673 2334.9 414.097 2343.42 399.324C2352.09 384.551 2356.42 367.648 2356.42 348.614ZM2486.07 456V128.727H2499.71V180.716H2501.41C2509.08 163.67 2521.65 150.034 2539.13 139.807C2556.74 129.58 2576.84 124.466 2599.42 124.466C2601.13 124.466 2602.26 124.466 2602.83 124.466C2603.4 124.466 2604.54 124.466 2606.24 124.466V138.102C2604.54 138.102 2603.4 138.102 2602.83 138.102C2602.26 138.102 2601.13 138.102 2599.42 138.102C2580.11 138.102 2562.92 142.293 2547.86 150.673C2532.95 159.054 2521.16 170.631 2512.49 185.403C2503.97 200.176 2499.71 217.08 2499.71 236.114V456H2486.07ZM2793.96 462.818C2765.4 462.818 2740.4 455.361 2718.96 440.446C2697.65 425.531 2681.1 405.29 2669.31 379.722C2657.52 354.153 2651.63 325.318 2651.63 293.216C2651.63 261.114 2657.52 232.278 2669.31 206.71C2681.24 181.142 2697.44 160.901 2717.89 145.986C2738.34 131.071 2761.43 123.614 2787.14 123.614C2806.17 123.614 2823.78 127.662 2839.98 135.759C2856.31 143.855 2870.52 155.077 2882.59 169.423C2894.67 183.77 2904.04 200.318 2910.72 219.068C2917.53 237.676 2920.94 257.562 2920.94 278.727V292.364H2658.44V278.727H2907.31C2907.31 252.449 2901.91 228.656 2891.11 207.349C2880.32 185.901 2865.83 168.855 2847.65 156.213C2829.47 143.571 2809.3 137.25 2787.14 137.25C2764.69 137.25 2744.38 143.926 2726.2 157.278C2708.02 170.631 2693.46 188.812 2682.52 211.824C2671.58 234.835 2665.83 260.83 2665.26 289.807V291.511C2665.26 320.062 2670.23 346.341 2680.18 370.347C2690.26 394.21 2704.89 413.315 2724.07 427.662C2743.25 442.009 2766.54 449.182 2793.96 449.182C2814.13 449.182 2831.03 445.631 2844.67 438.528C2858.44 431.426 2869.45 423.259 2877.69 414.026C2886.07 404.793 2892.25 396.909 2896.23 390.375L2907.31 398.045C2902.48 406.284 2895.23 415.446 2885.57 425.531C2875.92 435.616 2863.56 444.352 2848.5 451.739C2833.44 459.125 2815.26 462.818 2793.96 462.818ZM3302.18 462.818C3276.47 462.818 3253.38 455.432 3232.93 440.659C3212.47 425.744 3196.28 405.503 3184.35 379.935C3172.56 354.224 3166.66 325.318 3166.66 293.216C3166.66 260.972 3172.56 232.065 3184.35 206.497C3196.28 180.929 3212.47 160.759 3232.93 145.986C3253.38 131.071 3276.47 123.614 3302.18 123.614C3327.89 123.614 3350.9 131.071 3371.21 145.986C3391.66 160.901 3407.86 181.142 3419.79 206.71C3431.72 232.278 3437.69 261.114 3437.69 293.216C3437.69 325.318 3431.72 354.224 3419.79 379.935C3408 405.503 3391.88 425.744 3371.42 440.659C3350.97 455.432 3327.89 462.818 3302.18 462.818ZM3302.18 449.182C3325.33 449.182 3346.07 442.364 3364.39 428.727C3382.86 415.091 3397.42 396.483 3408.07 372.903C3418.72 349.324 3424.05 322.761 3424.05 293.216C3424.05 263.67 3418.65 237.179 3407.86 213.741C3397.2 190.162 3382.72 171.554 3364.39 157.918C3346.07 144.139 3325.33 137.25 3302.18 137.25C3279.16 137.25 3258.43 144.139 3239.96 157.918C3221.64 171.554 3207.08 190.162 3196.28 213.741C3185.63 237.179 3180.3 263.67 3180.3 293.216C3180.3 322.761 3185.63 349.324 3196.28 372.903C3206.93 396.483 3221.42 415.091 3239.75 428.727C3258.21 442.364 3279.02 449.182 3302.18 449.182ZM3646.23 128.727V142.364H3516.68V128.727H3646.23ZM3561.85 456V75.0341C3561.85 59.6932 3565.26 46.4119 3572.08 35.1903C3579.04 23.9687 3588.2 15.304 3599.57 9.19601C3611.07 3.08806 3623.5 0.0340877 3636.85 0.0340877C3641.97 0.0340877 3646.58 0.460225 3650.7 1.3125C3654.82 2.16477 3658.87 3.30114 3662.85 4.72159L3658.59 17.5057C3655.03 16.3693 3651.55 15.446 3648.15 14.7358C3644.74 14.0256 3640.97 13.6704 3636.85 13.6704C3620.52 13.6704 3606.17 19.1392 3593.81 30.0767C3581.6 41.0142 3575.49 56 3575.49 75.0341L3575.06 456H3561.85ZM4025.54 456H3911.34V19.6364H4036.62C4076.82 19.6364 4111.2 28.3011 4139.75 45.6307C4168.44 62.8182 4190.39 87.5341 4205.59 119.778C4220.93 152.023 4228.53 190.801 4228.38 236.114C4228.24 282.562 4220.14 322.193 4204.09 355.006C4188.18 387.676 4165.1 412.676 4134.85 430.006C4104.73 447.335 4068.3 456 4025.54 456ZM3924.97 442.364H4025.54C4065.88 442.364 4100.19 434.196 4128.45 417.861C4156.72 401.384 4178.17 377.733 4192.8 346.909C4207.57 316.085 4214.89 279.153 4214.75 236.114C4214.61 193.642 4207.5 157.278 4193.44 127.023C4179.52 96.767 4159.35 73.6136 4132.93 57.5625C4106.51 41.3693 4074.41 33.2727 4036.62 33.2727H3924.97V442.364ZM4411.84 462.818C4393.94 462.818 4377.39 459.125 4362.19 451.739C4347.13 444.352 4334.99 433.557 4325.76 419.352C4316.66 405.148 4312.12 387.818 4312.12 367.364C4312.12 356.284 4313.89 345.915 4317.45 336.256C4321 326.455 4327.25 317.577 4336.2 309.622C4345.14 301.668 4357.64 294.849 4373.7 289.168C4389.89 283.486 4410.56 279.153 4435.7 276.17C4450.76 274.466 4464.96 272.477 4478.31 270.205C4491.66 267.932 4502.53 264.523 4510.91 259.977C4519.29 255.432 4523.48 248.898 4523.48 240.375V220.773C4523.48 195.631 4515.03 175.46 4498.13 160.261C4481.22 144.92 4458.71 137.25 4430.59 137.25C4407.57 137.25 4387.47 142.364 4370.29 152.591C4353.1 162.676 4341.1 176.881 4334.28 195.205L4321.49 190.091C4326.61 176.455 4334.49 164.665 4345.14 154.722C4355.8 144.778 4368.44 137.108 4383.07 131.71C4397.7 126.312 4413.54 123.614 4430.59 123.614C4447.2 123.614 4462.05 126.099 4475.12 131.071C4488.33 135.901 4499.55 142.719 4508.78 151.526C4518.01 160.19 4525.05 170.418 4529.88 182.207C4534.7 193.997 4537.12 206.852 4537.12 220.773V456H4523.48V389.523H4521.78C4514.96 404.295 4506.08 417.222 4495.14 428.301C4484.35 439.239 4471.85 447.761 4457.64 453.869C4443.58 459.835 4428.31 462.818 4411.84 462.818ZM4411.84 449.182C4432.57 449.182 4451.39 443.642 4468.3 432.562C4485.2 421.341 4498.63 405.787 4508.57 385.901C4518.51 365.872 4523.48 342.648 4523.48 316.227V266.795C4519.51 269.778 4514.68 272.406 4508.99 274.679C4503.45 276.952 4497.13 279.011 4490.03 280.858C4483.07 282.562 4475.47 284.054 4467.23 285.332C4458.99 286.611 4450.19 287.818 4440.81 288.955C4411.55 292.364 4388.54 297.548 4371.78 304.509C4355.02 311.469 4343.16 320.205 4336.2 330.716C4329.24 341.227 4325.76 353.443 4325.76 367.364C4325.76 392.08 4333.99 411.895 4350.47 426.81C4367.09 441.724 4387.55 449.182 4411.84 449.182ZM4756.9 128.727V142.364H4627.35V128.727H4756.9ZM4675.08 50.3182H4688.72V386.966C4688.72 399.75 4691.56 410.759 4697.24 419.991C4702.92 429.082 4710.45 436.114 4719.83 441.085C4729.2 445.915 4739.29 448.33 4750.08 448.33C4754.2 448.33 4757.96 447.974 4761.37 447.264C4764.92 446.554 4768.55 445.489 4772.24 444.068L4776.5 456.852C4772.24 458.415 4768.05 459.622 4763.93 460.474C4759.81 461.469 4755.19 461.966 4750.08 461.966C4736.73 461.966 4724.3 458.912 4712.79 452.804C4701.43 446.696 4692.27 438.031 4685.31 426.81C4678.49 415.588 4675.08 402.307 4675.08 386.966V50.3182ZM4945.04 462.818C4927.14 462.818 4910.59 459.125 4895.39 451.739C4880.34 444.352 4868.19 433.557 4858.96 419.352C4849.87 405.148 4845.32 387.818 4845.32 367.364C4845.32 356.284 4847.1 345.915 4850.65 336.256C4854.2 326.455 4860.45 317.577 4869.4 309.622C4878.35 301.668 4890.85 294.849 4906.9 289.168C4923.09 283.486 4943.76 279.153 4968.9 276.17C4983.96 274.466 4998.16 272.477 5011.52 270.205C5024.87 267.932 5035.73 264.523 5044.12 259.977C5052.5 255.432 5056.69 248.898 5056.69 240.375V220.773C5056.69 195.631 5048.23 175.46 5031.33 160.261C5014.43 144.92 4991.91 137.25 4963.79 137.25C4940.78 137.25 4920.68 142.364 4903.49 152.591C4886.3 162.676 4874.3 176.881 4867.48 195.205L4854.7 190.091C4859.81 176.455 4867.69 164.665 4878.35 154.722C4889 144.778 4901.64 137.108 4916.27 131.71C4930.9 126.312 4946.74 123.614 4963.79 123.614C4980.41 123.614 4995.25 126.099 5008.32 131.071C5021.53 135.901 5032.75 142.719 5041.98 151.526C5051.22 160.19 5058.25 170.418 5063.08 182.207C5067.91 193.997 5070.32 206.852 5070.32 220.773V456H5056.69V389.523H5054.98C5048.16 404.295 5039.29 417.222 5028.35 428.301C5017.55 439.239 5005.05 447.761 4990.85 453.869C4976.79 459.835 4961.52 462.818 4945.04 462.818ZM4945.04 449.182C4965.78 449.182 4984.6 443.642 5001.5 432.562C5018.4 421.341 5031.83 405.787 5041.77 385.901C5051.71 365.872 5056.69 342.648 5056.69 316.227V266.795C5052.71 269.778 5047.88 272.406 5042.2 274.679C5036.66 276.952 5030.34 279.011 5023.23 280.858C5016.27 282.562 5008.67 284.054 5000.44 285.332C4992.2 286.611 4983.39 287.818 4974.02 288.955C4944.75 292.364 4921.74 297.548 4904.98 304.509C4888.22 311.469 4876.36 320.205 4869.4 330.716C4862.44 341.227 4858.96 353.443 4858.96 367.364C4858.96 392.08 4867.2 411.895 4883.67 426.81C4900.29 441.724 4920.75 449.182 4945.04 449.182ZM5332.72 456H5318.23L5474.19 19.6364H5492.94L5648.91 456H5634.42L5484.42 36.6818H5482.72L5332.72 456ZM5382.15 294.92H5584.99V308.557H5382.15V294.92ZM5739.94 236.114V456H5726.31V128.727H5739.94V180.716H5741.65C5749.32 163.67 5761.89 150.034 5779.36 139.807C5796.97 129.58 5817.07 124.466 5839.66 124.466C5861.53 124.466 5880.85 129.224 5897.61 138.741C5914.37 148.259 5927.51 161.398 5937.03 178.159C5946.55 194.92 5951.31 214.239 5951.31 236.114V456H5937.67V236.114C5937.67 207.136 5928.58 183.557 5910.4 165.375C5892.22 147.193 5868.64 138.102 5839.66 138.102C5820.34 138.102 5803.15 142.293 5788.1 150.673C5773.18 159.054 5761.39 170.631 5752.73 185.403C5744.2 200.176 5739.94 217.08 5739.94 236.114ZM6149.14 462.818C6131.24 462.818 6114.69 459.125 6099.5 451.739C6084.44 444.352 6072.29 433.557 6063.06 419.352C6053.97 405.148 6049.42 387.818 6049.42 367.364C6049.42 356.284 6051.2 345.915 6054.75 336.256C6058.3 326.455 6064.55 317.577 6073.5 309.622C6082.45 301.668 6094.95 294.849 6111 289.168C6127.19 283.486 6147.86 279.153 6173 276.17C6188.06 274.466 6202.26 272.477 6215.62 270.205C6228.97 267.932 6239.84 264.523 6248.22 259.977C6256.6 255.432 6260.79 248.898 6260.79 240.375V220.773C6260.79 195.631 6252.34 175.46 6235.43 160.261C6218.53 144.92 6196.01 137.25 6167.89 137.25C6144.88 137.25 6124.78 142.364 6107.59 152.591C6090.4 162.676 6078.4 176.881 6071.58 195.205L6058.8 190.091C6063.91 176.455 6071.8 164.665 6082.45 154.722C6093.1 144.778 6105.75 137.108 6120.38 131.71C6135.01 126.312 6150.84 123.614 6167.89 123.614C6184.51 123.614 6199.35 126.099 6212.42 131.071C6225.63 135.901 6236.85 142.719 6246.09 151.526C6255.32 160.19 6262.35 170.418 6267.18 182.207C6272.01 193.997 6274.42 206.852 6274.42 220.773V456H6260.79V389.523H6259.08C6252.26 404.295 6243.39 417.222 6232.45 428.301C6221.65 439.239 6209.15 447.761 6194.95 453.869C6180.89 459.835 6165.62 462.818 6149.14 462.818ZM6149.14 449.182C6169.88 449.182 6188.7 443.642 6205.6 432.562C6222.51 421.341 6235.93 405.787 6245.87 385.901C6255.82 365.872 6260.79 342.648 6260.79 316.227V266.795C6256.81 269.778 6251.98 272.406 6246.3 274.679C6240.76 276.952 6234.44 279.011 6227.34 280.858C6220.38 282.562 6212.78 284.054 6204.54 285.332C6196.3 286.611 6187.49 287.818 6178.12 288.955C6148.86 292.364 6125.84 297.548 6109.08 304.509C6092.32 311.469 6080.46 320.205 6073.5 330.716C6066.54 341.227 6063.06 353.443 6063.06 367.364C6063.06 392.08 6071.3 411.895 6087.78 426.81C6104.4 441.724 6124.85 449.182 6149.14 449.182ZM6405.57 19.6364V456H6391.93V19.6364H6405.57ZM6536.34 578.727C6530.8 578.727 6524.9 577.946 6518.65 576.384C6512.4 574.963 6506.08 572.903 6499.69 570.205L6504.8 558.273C6518.87 564.239 6531.65 566.369 6543.16 564.665C6554.8 563.102 6565.03 557.776 6573.84 548.685C6582.79 539.594 6590.17 526.881 6596 510.545L6613.47 461.966L6494.15 128.727H6508.64L6619.43 438.955H6621.14L6731.93 128.727H6746.42L6608.78 515.659C6603.95 529.295 6597.91 540.801 6590.67 550.176C6583.43 559.551 6575.19 566.653 6565.95 571.483C6556.86 576.313 6546.99 578.727 6536.34 578.727ZM7030.92 197.761L7017.29 201.17C7012.88 186.966 7006.7 175.176 6998.75 165.801C6990.94 156.284 6981.35 149.182 6969.99 144.494C6958.62 139.665 6945.41 137.25 6930.35 137.25C6904.22 137.25 6883.05 143.926 6866.86 157.278C6850.67 170.489 6842.57 187.96 6842.57 209.693C6842.57 226.881 6848.04 241.298 6858.98 252.946C6870.06 264.594 6886.75 273.187 6909.05 278.727L6960.18 291.511C6984.19 297.477 7002.37 307.562 7014.73 321.767C7027.23 335.972 7033.48 353.159 7033.48 373.33C7033.48 391.085 7028.79 406.71 7019.42 420.205C7010.18 433.699 6997.4 444.21 6981.06 451.739C6964.73 459.125 6945.84 462.818 6924.39 462.818C6895.27 462.818 6871.48 455.716 6853.01 441.511C6834.54 427.307 6822.54 407.136 6817 381L6830.64 377.591C6835.47 400.744 6845.77 418.5 6861.53 430.858C6877.44 443.074 6898.39 449.182 6924.39 449.182C6952.8 449.182 6975.81 442.222 6993.42 428.301C7011.04 414.381 7019.84 396.057 7019.84 373.33C7019.84 356.426 7014.59 342.151 7004.08 330.503C6993.56 318.855 6977.8 310.403 6956.77 305.148L6905.64 292.364C6880.5 286.114 6861.39 275.886 6848.32 261.682C6835.4 247.477 6828.93 230.148 6828.93 209.693C6828.93 192.506 6833.2 177.52 6841.72 164.736C6850.38 151.81 6862.31 141.724 6877.51 134.48C6892.85 127.236 6910.47 123.614 6930.35 123.614C6955.64 123.614 6976.73 129.864 6993.64 142.364C7010.54 154.722 7022.97 173.187 7030.92 197.761ZM7132.5 456V128.727H7146.14V456H7132.5ZM7139.32 69.0682C7135.63 69.0682 7132.43 67.7187 7129.73 65.0199C7127.03 62.321 7125.68 59.125 7125.68 55.4318C7125.68 51.7386 7127.03 48.5426 7129.73 45.8438C7132.43 43.1449 7135.63 41.7954 7139.32 41.7954C7143.01 41.7954 7146.21 43.1449 7148.91 45.8438C7151.61 48.5426 7152.96 51.7386 7152.96 55.4318C7152.96 59.125 7151.61 62.321 7148.91 65.0199C7146.21 67.7187 7143.01 69.0682 7139.32 69.0682ZM7459.83 197.761L7446.19 201.17C7441.79 186.966 7435.61 175.176 7427.66 165.801C7419.84 156.284 7410.25 149.182 7398.89 144.494C7387.53 139.665 7374.32 137.25 7359.26 137.25C7333.12 137.25 7311.96 143.926 7295.77 157.278C7279.57 170.489 7271.48 187.96 7271.48 209.693C7271.48 226.881 7276.95 241.298 7287.88 252.946C7298.96 264.594 7315.65 273.187 7337.95 278.727L7389.09 291.511C7413.1 297.477 7431.28 307.562 7443.64 321.767C7456.14 335.972 7462.39 353.159 7462.39 373.33C7462.39 391.085 7457.7 406.71 7448.32 420.205C7439.09 433.699 7426.31 444.21 7409.97 451.739C7393.64 459.125 7374.74 462.818 7353.29 462.818C7324.18 462.818 7300.38 455.716 7281.92 441.511C7263.45 427.307 7251.45 407.136 7245.91 381L7259.54 377.591C7264.37 400.744 7274.67 418.5 7290.44 430.858C7306.35 443.074 7327.3 449.182 7353.29 449.182C7381.7 449.182 7404.72 442.222 7422.33 428.301C7439.94 414.381 7448.75 396.057 7448.75 373.33C7448.75 356.426 7443.49 342.151 7432.98 330.503C7422.47 318.855 7406.7 310.403 7385.68 305.148L7334.54 292.364C7309.4 286.114 7290.3 275.886 7277.23 261.682C7264.3 247.477 7257.84 230.148 7257.84 209.693C7257.84 192.506 7262.1 177.52 7270.62 164.736C7279.29 151.81 7291.22 141.724 7306.42 134.48C7321.76 127.236 7339.37 123.614 7359.26 123.614C7384.54 123.614 7405.64 129.864 7422.54 142.364C7439.45 154.722 7451.87 173.187 7459.83 197.761ZM120.216 1182L0.0454551 745.636H14.5341L128.739 1160.69H130.443L241.239 745.636H259.989L370.784 1160.69H372.489L486.693 745.636H501.182L381.011 1182H362.261L251.466 766.943H249.761L138.966 1182H120.216ZM589.552 962.114V1182H575.915V745.636H589.552V906.716H591.256C598.927 889.67 611.498 876.034 628.969 865.807C646.583 855.58 666.683 850.466 689.268 850.466C711.143 850.466 730.461 855.224 747.222 864.741C763.984 874.259 777.123 887.398 786.64 904.159C796.157 920.92 800.915 940.239 800.915 962.114V1182H787.279V962.114C787.279 933.136 778.188 909.557 760.006 891.375C741.825 873.193 718.245 864.102 689.268 864.102C669.95 864.102 652.762 868.293 637.705 876.673C622.79 885.054 611.001 896.631 602.336 911.403C593.813 926.176 589.552 943.08 589.552 962.114ZM1039.66 1188.82C1011.11 1188.82 986.107 1181.36 964.658 1166.45C943.352 1151.53 926.803 1131.29 915.013 1105.72C903.224 1080.15 897.329 1051.32 897.329 1019.22C897.329 987.114 903.224 958.278 915.013 932.71C926.945 907.142 943.138 886.901 963.593 871.986C984.048 857.071 1007.13 849.614 1032.84 849.614C1051.87 849.614 1069.49 853.662 1085.68 861.759C1102.02 869.855 1116.22 881.077 1128.29 895.423C1140.37 909.77 1149.74 926.318 1156.42 945.068C1163.24 963.676 1166.65 983.562 1166.65 1004.73V1018.36H904.147V1004.73H1153.01C1153.01 978.449 1147.61 954.656 1136.82 933.349C1126.02 911.901 1111.53 894.855 1093.35 882.213C1075.17 869.571 1055 863.25 1032.84 863.25C1010.4 863.25 990.085 869.926 971.903 883.278C953.721 896.631 939.161 914.812 928.224 937.824C917.286 960.835 911.533 986.83 910.965 1015.81V1017.51C910.965 1046.06 915.937 1072.34 925.88 1096.35C935.965 1120.21 950.596 1139.32 969.772 1153.66C988.948 1168.01 1012.24 1175.18 1039.66 1175.18C1059.83 1175.18 1076.73 1171.63 1090.37 1164.53C1104.15 1157.43 1115.16 1149.26 1123.39 1140.03C1131.77 1130.79 1137.95 1122.91 1141.93 1116.38L1153.01 1124.05C1148.18 1132.28 1140.94 1141.45 1131.28 1151.53C1121.62 1161.62 1109.26 1170.35 1094.2 1177.74C1079.15 1185.13 1060.97 1188.82 1039.66 1188.82ZM1263.22 1182V854.727H1276.86V906.716H1278.56C1286.23 889.67 1298.8 876.034 1316.27 865.807C1333.89 855.58 1353.99 850.466 1376.57 850.466C1378.28 850.466 1379.41 850.466 1379.98 850.466C1380.55 850.466 1381.69 850.466 1383.39 850.466V864.102C1381.69 864.102 1380.55 864.102 1379.98 864.102C1379.41 864.102 1378.28 864.102 1376.57 864.102C1357.25 864.102 1340.07 868.293 1325.01 876.673C1310.1 885.054 1298.31 896.631 1289.64 911.403C1281.12 926.176 1276.86 943.08 1276.86 962.114V1182H1263.22ZM1571.1 1188.82C1542.55 1188.82 1517.55 1181.36 1496.1 1166.45C1474.8 1151.53 1458.25 1131.29 1446.46 1105.72C1434.67 1080.15 1428.77 1051.32 1428.77 1019.22C1428.77 987.114 1434.67 958.278 1446.46 932.71C1458.39 907.142 1474.58 886.901 1495.04 871.986C1515.49 857.071 1538.58 849.614 1564.29 849.614C1583.32 849.614 1600.93 853.662 1617.13 861.759C1633.46 869.855 1647.67 881.077 1659.74 895.423C1671.81 909.77 1681.19 926.318 1687.87 945.068C1694.68 963.676 1698.09 983.562 1698.09 1004.73V1018.36H1435.59V1004.73H1684.46C1684.46 978.449 1679.06 954.656 1668.26 933.349C1657.47 911.901 1642.98 894.855 1624.8 882.213C1606.62 869.571 1586.44 863.25 1564.29 863.25C1541.84 863.25 1521.53 869.926 1503.35 883.278C1485.17 896.631 1470.61 914.812 1459.67 937.824C1448.73 960.835 1442.98 986.83 1442.41 1015.81V1017.51C1442.41 1046.06 1447.38 1072.34 1457.33 1096.35C1467.41 1120.21 1482.04 1139.32 1501.22 1153.66C1520.39 1168.01 1543.69 1175.18 1571.1 1175.18C1591.27 1175.18 1608.18 1171.63 1621.81 1164.53C1635.59 1157.43 1646.6 1149.26 1654.84 1140.03C1663.22 1130.79 1669.4 1122.91 1673.38 1116.38L1684.46 1124.05C1679.63 1132.28 1672.38 1141.45 1662.72 1151.53C1653.06 1161.62 1640.71 1170.35 1625.65 1177.74C1610.59 1185.13 1592.41 1188.82 1571.1 1188.82ZM1939.55 1182H1925.06L2081.03 745.636H2099.78L2255.75 1182H2241.26L2091.26 762.682H2089.55L1939.55 1182ZM1988.98 1020.92H2191.82V1034.56H1988.98V1020.92ZM2357.01 745.636V1182H2343.37V745.636H2357.01ZM2662.12 745.636H2674.05L2852.18 1161.55H2853.88L3032.01 745.636H3043.94V1182H3030.3V788.25H3028.6L2859.85 1182H2846.21L2677.46 788.25H2675.76V1182H2662.12V745.636ZM3292.59 1188.82C3264.04 1188.82 3239.04 1181.36 3217.59 1166.45C3196.28 1151.53 3179.73 1131.29 3167.94 1105.72C3156.15 1080.15 3150.26 1051.32 3150.26 1019.22C3150.26 987.114 3156.15 958.278 3167.94 932.71C3179.88 907.142 3196.07 886.901 3216.52 871.986C3236.98 857.071 3260.06 849.614 3285.77 849.614C3304.8 849.614 3322.42 853.662 3338.61 861.759C3354.95 869.855 3369.15 881.077 3381.22 895.423C3393.3 909.77 3402.67 926.318 3409.35 945.068C3416.17 963.676 3419.58 983.562 3419.58 1004.73V1018.36H3157.08V1004.73H3405.94C3405.94 978.449 3400.54 954.656 3389.75 933.349C3378.95 911.901 3364.46 894.855 3346.28 882.213C3328.1 869.571 3307.93 863.25 3285.77 863.25C3263.33 863.25 3243.01 869.926 3224.83 883.278C3206.65 896.631 3192.09 914.812 3181.15 937.824C3170.22 960.835 3164.46 986.83 3163.89 1015.81V1017.51C3163.89 1046.06 3168.87 1072.34 3178.81 1096.35C3188.89 1120.21 3203.53 1139.32 3222.7 1153.66C3241.88 1168.01 3265.17 1175.18 3292.59 1175.18C3312.76 1175.18 3329.66 1171.63 3343.3 1164.53C3357.08 1157.43 3368.09 1149.26 3376.32 1140.03C3384.7 1130.79 3390.88 1122.91 3394.86 1116.38L3405.94 1124.05C3401.11 1132.28 3393.87 1141.45 3384.21 1151.53C3374.55 1161.62 3362.19 1170.35 3347.13 1177.74C3332.08 1185.13 3313.89 1188.82 3292.59 1188.82ZM3638.88 1188.82C3610.33 1188.82 3585.33 1181.36 3563.88 1166.45C3542.57 1151.53 3526.02 1131.29 3514.23 1105.72C3502.44 1080.15 3496.55 1051.32 3496.55 1019.22C3496.55 987.114 3502.44 958.278 3514.23 932.71C3526.16 907.142 3542.36 886.901 3562.81 871.986C3583.27 857.071 3606.35 849.614 3632.06 849.614C3651.09 849.614 3668.71 853.662 3684.9 861.759C3701.24 869.855 3715.44 881.077 3727.51 895.423C3739.59 909.77 3748.96 926.318 3755.64 945.068C3762.46 963.676 3765.87 983.562 3765.87 1004.73V1018.36H3503.37V1004.73H3752.23C3752.23 978.449 3746.83 954.656 3736.04 933.349C3725.24 911.901 3710.75 894.855 3692.57 882.213C3674.39 869.571 3654.22 863.25 3632.06 863.25C3609.62 863.25 3589.3 869.926 3571.12 883.278C3552.94 896.631 3538.38 914.812 3527.44 937.824C3516.5 960.835 3510.75 986.83 3510.18 1015.81V1017.51C3510.18 1046.06 3515.16 1072.34 3525.1 1096.35C3535.18 1120.21 3549.81 1139.32 3568.99 1153.66C3588.17 1168.01 3611.46 1175.18 3638.88 1175.18C3659.05 1175.18 3675.95 1171.63 3689.59 1164.53C3703.37 1157.43 3714.37 1149.26 3722.61 1140.03C3730.99 1130.79 3737.17 1122.91 3741.15 1116.38L3752.23 1124.05C3747.4 1132.28 3740.16 1141.45 3730.5 1151.53C3720.84 1161.62 3708.48 1170.35 3693.42 1177.74C3678.37 1185.13 3660.18 1188.82 3638.88 1188.82ZM3964.71 854.727V868.364H3835.17V854.727H3964.71ZM3882.89 776.318H3896.53V1112.97C3896.53 1125.75 3899.37 1136.76 3905.05 1145.99C3910.73 1155.08 3918.26 1162.11 3927.64 1167.09C3937.01 1171.91 3947.1 1174.33 3957.89 1174.33C3962.01 1174.33 3965.78 1173.97 3969.19 1173.26C3972.74 1172.55 3976.36 1171.49 3980.05 1170.07L3984.31 1182.85C3980.05 1184.41 3975.86 1185.62 3971.74 1186.47C3967.62 1187.47 3963.01 1187.97 3957.89 1187.97C3944.54 1187.97 3932.11 1184.91 3920.61 1178.8C3909.24 1172.7 3900.08 1164.03 3893.12 1152.81C3886.3 1141.59 3882.89 1128.31 3882.89 1112.97V776.318ZM4261.2 923.761L4247.56 927.17C4243.16 912.966 4236.98 901.176 4229.02 891.801C4221.21 882.284 4211.62 875.182 4200.26 870.494C4188.89 865.665 4175.68 863.25 4160.63 863.25C4134.49 863.25 4113.33 869.926 4097.13 883.278C4080.94 896.489 4072.84 913.96 4072.84 935.693C4072.84 952.881 4078.31 967.298 4089.25 978.946C4100.33 990.594 4117.02 999.187 4139.32 1004.73L4190.46 1017.51C4214.46 1023.48 4232.64 1033.56 4245 1047.77C4257.5 1061.97 4263.75 1079.16 4263.75 1099.33C4263.75 1117.09 4259.07 1132.71 4249.69 1146.2C4240.46 1159.7 4227.67 1170.21 4211.34 1177.74C4195 1185.13 4176.11 1188.82 4154.66 1188.82C4125.54 1188.82 4101.75 1181.72 4083.28 1167.51C4064.82 1153.31 4052.82 1133.14 4047.28 1107L4060.91 1103.59C4065.74 1126.74 4076.04 1144.5 4091.81 1156.86C4107.72 1169.07 4128.67 1175.18 4154.66 1175.18C4183.07 1175.18 4206.08 1168.22 4223.7 1154.3C4241.31 1140.38 4250.12 1122.06 4250.12 1099.33C4250.12 1082.43 4244.86 1068.15 4234.35 1056.5C4223.84 1044.86 4208.07 1036.4 4187.05 1031.15L4135.91 1018.36C4110.77 1012.11 4091.66 1001.89 4078.6 987.682C4065.67 973.477 4059.21 956.148 4059.21 935.693C4059.21 918.506 4063.47 903.52 4071.99 890.736C4080.66 877.81 4092.59 867.724 4107.79 860.48C4123.13 853.236 4140.74 849.614 4160.63 849.614C4185.91 849.614 4207.01 855.864 4223.91 868.364C4240.81 880.722 4253.24 899.187 4261.2 923.761ZM4773.57 854.727C4771.44 824.898 4760.01 800.395 4739.27 781.219C4718.67 762.043 4691.47 752.455 4657.66 752.455C4635.5 752.455 4615.69 756.716 4598.22 765.239C4580.75 773.761 4566.97 785.48 4556.88 800.395C4546.8 815.168 4541.75 832.142 4541.75 851.318C4541.75 862.398 4543.6 872.625 4547.29 882C4550.99 891.375 4556.6 899.969 4564.13 907.781C4571.8 915.452 4581.38 922.412 4592.89 928.662C4604.54 934.77 4618.17 940.239 4633.8 945.068L4683.23 960.409C4702.12 966.233 4718.46 972.767 4732.24 980.011C4746.01 987.256 4757.38 995.423 4766.33 1004.51C4775.42 1013.46 4782.17 1023.48 4786.57 1034.56C4790.97 1045.49 4793.17 1057.71 4793.17 1071.2C4793.17 1093.93 4787.35 1114.17 4775.7 1131.93C4764.05 1149.68 4747.79 1163.61 4726.91 1173.69C4706.03 1183.78 4681.81 1188.82 4654.25 1188.82C4627.69 1188.82 4604.47 1184.2 4584.58 1174.97C4564.69 1165.59 4548.93 1152.74 4537.28 1136.4C4525.77 1119.93 4519.31 1101.03 4517.89 1079.73H4531.53C4532.95 1098.48 4538.84 1115.03 4549.21 1129.37C4559.58 1143.72 4573.64 1154.94 4591.4 1163.04C4609.3 1171.13 4630.25 1175.18 4654.25 1175.18C4679.25 1175.18 4701.13 1170.85 4719.88 1162.18C4738.77 1153.38 4753.4 1141.16 4763.77 1125.54C4774.28 1109.91 4779.54 1091.8 4779.54 1071.2C4779.54 1055.58 4776.13 1041.87 4769.31 1030.08C4762.49 1018.15 4751.77 1007.64 4737.14 998.548C4722.51 989.457 4703.4 981.29 4679.82 974.045L4630.39 958.705C4596.16 947.909 4570.52 933.634 4553.47 915.878C4536.57 898.122 4528.12 876.602 4528.12 851.318C4528.12 829.869 4533.73 810.693 4544.95 793.79C4556.17 776.744 4571.51 763.321 4590.97 753.52C4610.57 743.719 4632.8 738.818 4657.66 738.818C4682.66 738.818 4704.61 743.79 4723.5 753.733C4742.39 763.676 4757.38 777.384 4768.46 794.855C4779.54 812.327 4785.79 832.284 4787.21 854.727H4773.57ZM4898.91 1182V854.727H4912.55V1182H4898.91ZM4905.73 795.068C4902.03 795.068 4898.84 793.719 4896.14 791.02C4893.44 788.321 4892.09 785.125 4892.09 781.432C4892.09 777.739 4893.44 774.543 4896.14 771.844C4898.84 769.145 4902.03 767.795 4905.73 767.795C4909.42 767.795 4912.62 769.145 4915.32 771.844C4918.01 774.543 4919.36 777.739 4919.36 781.432C4919.36 785.125 4918.01 788.321 4915.32 791.02C4912.62 793.719 4909.42 795.068 4905.73 795.068ZM5030.21 1182V854.727H5043.85V903.307H5045.55C5051.52 887.398 5062.17 874.614 5077.51 864.955C5093 855.295 5111.6 850.466 5133.34 850.466C5158.05 850.466 5177.73 856.574 5192.36 868.79C5207.13 881.006 5217.29 897.341 5222.83 917.795H5224.53C5229.93 897.341 5240.87 881.006 5257.34 868.79C5273.82 856.574 5294.42 850.466 5319.13 850.466C5351.95 850.466 5376.16 860.906 5391.79 881.787C5407.56 902.526 5415.44 929.301 5415.44 962.114V1182H5401.8V962.114C5401.8 933.136 5395.27 909.557 5382.2 891.375C5369.13 873.193 5348.11 864.102 5319.13 864.102C5290.16 864.102 5268 873.335 5252.66 891.801C5237.31 910.125 5229.64 933.562 5229.64 962.114V1182H5216.01V962.114C5216.01 933.136 5209.47 909.557 5196.41 891.375C5183.34 873.193 5162.31 864.102 5133.34 864.102C5114.02 864.102 5097.68 868.293 5084.33 876.673C5071.12 885.054 5061.04 896.631 5054.08 911.403C5047.26 926.176 5043.85 943.08 5043.85 962.114V1182H5030.21ZM5531.19 1304.73V854.727H5544.83V938.25H5546.53C5552.5 920.068 5560.81 904.372 5571.46 891.162C5582.11 877.952 5594.68 867.724 5609.17 860.48C5623.8 853.236 5639.85 849.614 5657.33 849.614C5683.18 849.614 5705.48 857.071 5724.23 871.986C5743.12 886.759 5757.68 906.929 5767.91 932.497C5778.28 958.065 5783.46 986.972 5783.46 1019.22C5783.46 1051.32 5778.28 1080.15 5767.91 1105.72C5757.54 1131.29 5742.91 1151.53 5724.02 1166.45C5705.12 1181.36 5682.89 1188.82 5657.33 1188.82C5640 1188.82 5624.02 1185.27 5609.38 1178.16C5594.75 1170.92 5582.04 1160.69 5571.25 1147.48C5560.45 1134.13 5552.21 1118.36 5546.53 1100.18H5544.83V1304.73H5531.19ZM5544.83 1019.22C5544.83 1048.76 5549.37 1075.32 5558.46 1098.9C5567.69 1122.34 5580.69 1140.95 5597.45 1154.73C5614.36 1168.36 5634.31 1175.18 5657.33 1175.18C5680.34 1175.18 5700.22 1168.36 5716.98 1154.73C5733.89 1140.95 5746.88 1122.34 5755.98 1098.9C5765.21 1075.32 5769.83 1048.76 5769.83 1019.22C5769.83 989.67 5765.28 963.179 5756.19 939.741C5747.1 916.162 5734.1 897.554 5717.2 883.918C5700.44 870.139 5680.48 863.25 5657.33 863.25C5634.17 863.25 5614.14 870.139 5597.24 883.918C5580.48 897.554 5567.55 916.162 5558.46 939.741C5549.37 963.179 5544.83 989.67 5544.83 1019.22ZM5893.46 745.636V1182H5879.82V745.636H5893.46ZM6011.02 1182V854.727H6024.65V1182H6011.02ZM6017.84 795.068C6014.14 795.068 6010.95 793.719 6008.25 791.02C6005.55 788.321 6004.2 785.125 6004.2 781.432C6004.2 777.739 6005.55 774.543 6008.25 771.844C6010.95 769.145 6014.14 767.795 6017.84 767.795C6021.53 767.795 6024.73 769.145 6027.42 771.844C6030.12 774.543 6031.47 777.739 6031.47 781.432C6031.47 785.125 6030.12 788.321 6027.42 791.02C6024.73 793.719 6021.53 795.068 6017.84 795.068ZM6259.94 1188.82C6233.51 1188.82 6209.94 1181.43 6189.2 1166.66C6168.6 1151.74 6152.34 1131.5 6140.4 1105.93C6128.61 1080.37 6122.72 1051.46 6122.72 1019.22C6122.72 987.256 6128.61 958.491 6140.4 932.923C6152.19 907.213 6168.39 886.901 6188.98 871.986C6209.72 857.071 6233.37 849.614 6259.94 849.614C6279.54 849.614 6297.51 853.875 6313.84 862.398C6330.32 870.778 6344.1 882.568 6355.18 897.767C6366.26 912.824 6373.43 930.295 6376.7 950.182H6362.21C6357.8 924.472 6346.09 903.591 6327.05 887.54C6308.16 871.347 6285.79 863.25 6259.94 863.25C6236.5 863.25 6215.4 870.068 6196.65 883.705C6178.05 897.199 6163.34 915.736 6152.55 939.315C6141.75 962.753 6136.36 989.386 6136.36 1019.22C6136.36 1048.19 6141.54 1074.47 6151.91 1098.05C6162.42 1121.63 6176.98 1140.38 6195.59 1154.3C6214.2 1168.22 6235.65 1175.18 6259.94 1175.18C6277.41 1175.18 6293.46 1171.56 6308.09 1164.32C6322.72 1156.93 6334.86 1146.56 6344.52 1133.21C6354.32 1119.86 6360.5 1104.3 6363.06 1086.55H6377.55C6374.42 1107.14 6367.32 1125.11 6356.24 1140.45C6345.16 1155.79 6331.31 1167.72 6314.69 1176.25C6298.07 1184.63 6279.82 1188.82 6259.94 1188.82ZM6475.67 1182V854.727H6489.3V1182H6475.67ZM6482.49 795.068C6478.79 795.068 6475.6 793.719 6472.9 791.02C6470.2 788.321 6468.85 785.125 6468.85 781.432C6468.85 777.739 6470.2 774.543 6472.9 771.844C6475.6 769.145 6478.79 767.795 6482.49 767.795C6486.18 767.795 6489.37 769.145 6492.07 771.844C6494.77 774.543 6496.12 777.739 6496.12 781.432C6496.12 785.125 6494.77 788.321 6492.07 791.02C6489.37 793.719 6486.18 795.068 6482.49 795.068ZM6709.24 854.727V868.364H6579.7V854.727H6709.24ZM6627.42 776.318H6641.06V1112.97C6641.06 1125.75 6643.9 1136.76 6649.58 1145.99C6655.27 1155.08 6662.79 1162.11 6672.17 1167.09C6681.54 1171.91 6691.63 1174.33 6702.42 1174.33C6706.54 1174.33 6710.31 1173.97 6713.72 1173.26C6717.27 1172.55 6720.89 1171.49 6724.58 1170.07L6728.85 1182.85C6724.58 1184.41 6720.39 1185.62 6716.27 1186.47C6712.15 1187.47 6707.54 1187.97 6702.42 1187.97C6689.07 1187.97 6676.64 1184.91 6665.14 1178.8C6653.77 1172.7 6644.61 1164.03 6637.65 1152.81C6630.83 1141.59 6627.42 1128.31 6627.42 1112.97V776.318ZM6830.48 1304.73C6824.94 1304.73 6819.04 1303.95 6812.79 1302.38C6806.54 1300.96 6800.22 1298.9 6793.83 1296.2L6798.94 1284.27C6813.01 1290.24 6825.79 1292.37 6837.3 1290.66C6848.94 1289.1 6859.17 1283.78 6867.98 1274.68C6876.93 1265.59 6884.31 1252.88 6890.14 1236.55L6907.61 1187.97L6788.29 854.727H6802.78L6913.58 1164.95H6915.28L7026.08 854.727H7040.56L6902.92 1241.66C6898.09 1255.3 6892.06 1266.8 6884.81 1276.18C6877.57 1285.55 6869.33 1292.65 6860.1 1297.48C6851 1302.31 6841.13 1304.73 6830.48 1304.73Z" fill="#EEEEEE"/>
</svg>
